<svg id="Layer_1" enable-background="new 0 0 68 68" viewBox="0 0 68 68" xmlns="http://www.w3.org/2000/svg"><g><g><g><g><g><g><g><g><path d="m52.5973206 45.5603943v10.3024139c0 1.7694931-1.4344597 3.203949-3.2039528 3.203949h-44.3551088c-1.7694938 0-3.2039523-1.4344559-3.2039523-3.203949v-10.3024139c0-1.7694931 1.4344585-3.2039528 3.2039523-3.2039528h44.3551102c1.7694917 0 3.2039514 1.4344597 3.2039514 3.2039528z" fill="#435e88"/><path d="m52.5933151 45.5631065v10.2957039c0 1.7759438-1.4319038 3.2079468-3.1999397 3.2079468h-44.3512187l44.3512192-16.7115974c1.7680354 0 3.1999392 1.432003 3.1999392 3.2079467z" fill="#33527d"/></g><g><path d="m52.5973206 28.8500786v10.3024101c0 1.7694969-1.4344597 3.2039528-3.2039528 3.2039528h-44.3551088c-1.7694938 0-3.2039523-1.4344559-3.2039523-3.2039528v-10.3024101c0-1.7694931 1.4344585-3.2039528 3.2039523-3.2039528h44.3551102c1.7694917 0 3.2039514 1.4344597 3.2039514 3.2039528z" fill="#435e88"/><path d="m52.5933151 28.8527889v10.2957058c0 1.7759438-1.4319038 3.2079468-3.1999397 3.2079468h-44.3512187l44.3512192-16.7115993c1.7680354-.0000001 3.1999392 1.4320049 3.1999392 3.2079467z" fill="#33527d"/></g></g><g><path d="m13.2461042 50.714962c0 1.7120781-1.3839579 3.096035-3.096035 3.096035-1.7118826 0-3.1038485-1.3839569-3.1038485-3.096035 0-1.7118797 1.3919659-3.1038475 3.1038485-3.1038475 1.7120772 0 3.096035 1.3919678 3.096035 3.1038475z" fill="#e5e8ef"/><path d="m12.3381138 52.9069138c-1.2159929 1.2079849-3.1679096 1.2079849-4.3839021 0l4.3839021-4.3839035c1.2159929 1.2079849 1.2079849 3.1759185 0 4.3839035z" fill="#cdd4df"/><g><path d="m20.1269798 50.7137032c0 .9812469-.7931938 1.7744408-1.7744427 1.7744408-.9811382 0-1.7789211-.7931938-1.7789211-1.7744408 0-.9811401.7977829-1.778923 1.7789211-1.778923.9812489-.0000001 1.7744427.7977828 1.7744427 1.778923z" fill="#4cc66e"/><path d="m19.6065807 51.9699821c-.696928.692337-1.8156376.692337-2.5125637 0l2.5125637-2.5125618c.6969262.6923371.6923371 1.8202248 0 2.5125618z" fill="#14a142"/></g><g><path d="m25.6175976 50.7137032c0 .9812469-.7931938 1.7744408-1.7744427 1.7744408-.9811382 0-1.7789211-.7931938-1.7789211-1.7744408 0-.9811401.7977829-1.778923 1.7789211-1.778923.9812489-.0000001 1.7744427.7977828 1.7744427 1.778923z" fill="#c175ff"/><path d="m25.0971985 51.9699821c-.696928.692337-1.8156376.692337-2.5125637 0l2.5125637-2.5125618c.6969261.6923371.692337 1.8202248 0 2.5125618z" fill="#b244f1"/></g><path d="m47.4927559 50.7116013c0 .3709831-.1507645.7062263-.3927765.950222-.2439995.2420616-.5792389.3927803-.9502258.3927803h-14.9340782c-.7419682 0-1.3430004-.6010361-1.3430004-1.3430023 0-.3708878.1507664-.7062263.3927784-.950222.2439957-.2419662.5792389-.3927803.950222-.3927803h14.9340782c.7419204-.0000001 1.3430023.6011314 1.3430023 1.3430023z" fill="#fff"/><path d="m37.6564217 52.0535774h-6.4459477c-.7408504 0-1.3336353-.6031189-1.3336353-1.3442268 0-.3705559.1483269-.7090683.3917446-.9524879.2434196-.232563.5715942-.3917427.9418907-.3917427h6.4459476c-.3705559 0-.7093277.1591797-.9527473.3917427-.2434158.2434196-.3914833.5819321-.3914833.9524879 0 .7411079.6031189 1.3442268 1.3442307 1.3442268z" fill="#cdd4df"/></g><g><path d="m13.2461042 33.9952965c0 1.7120743-1.3839579 3.096035-3.096035 3.096035-1.7118826 0-3.1038485-1.3839607-3.1038485-3.096035 0-1.7118835 1.3919659-3.1038494 3.1038485-3.1038494 1.7120772 0 3.096035 1.3919658 3.096035 3.1038494z" fill="#e5e8ef"/><path d="m12.3381138 36.1872444c-1.2159929 1.2079887-3.1679096 1.2079887-4.3839021 0l4.3839021-4.3838997c1.2159929 1.207985 1.2079849 3.1759148 0 4.3838997z" fill="#cdd4df"/><g><path d="m20.1269798 33.9940338c0 .9812508-.7931938 1.7744446-1.7744427 1.7744446-.9811382 0-1.7789211-.7931938-1.7789211-1.7744446 0-.9811363.7977829-1.7789192 1.7789211-1.7789192.9812489 0 1.7744427.7977829 1.7744427 1.7789192z" fill="#4cc66e"/><path d="m19.6065807 35.2503166c-.696928.692337-1.8156376.692337-2.5125637 0l2.5125637-2.5125656c.6969262.692337.6923371 1.8202286 0 2.5125656z" fill="#14a142"/></g><g><path d="m25.6175976 33.9940338c0 .9812508-.7931938 1.7744446-1.7744427 1.7744446-.9811382 0-1.7789211-.7931938-1.7789211-1.7744446 0-.9811363.7977829-1.7789192 1.7789211-1.7789192.9812489 0 1.7744427.7977829 1.7744427 1.7789192z" fill="#c175ff"/><path d="m25.0971985 35.2503166c-.696928.692337-1.8156376.692337-2.5125637 0l2.5125637-2.5125656c.6969261.692337.692337 1.8202286 0 2.5125656z" fill="#b244f1"/></g><path d="m47.4927559 33.9919319c0 .3709869-.1507645.7062263-.3927765.9502258-.2439995.2420578-.5792389.3927765-.9502258.3927765h-14.9340782c-.7419682 0-1.3430004-.6010323-1.3430004-1.3430023 0-.3708839.1507664-.7062263.3927784-.950222.2439957-.2419624.5792389-.3927765.950222-.3927765h14.9340782c.7419204 0 1.3430023.6011276 1.3430023 1.3429985z" fill="#fff"/><path d="m37.6564217 35.3339119h-6.4459477c-.7408504 0-1.3336353-.6031189-1.3336353-1.3442307 0-.3705559.1483269-.7090645.3917446-.9524841.2434196-.2325668.5715942-.3917465.9418907-.3917465h6.4459476c-.3705559 0-.7093277.1591797-.9527473.3917465-.2434158.2434196-.3914833.5819283-.3914833.9524841 0 .7411118.6031189 1.3442307 1.3442307 1.3442307z" fill="#cdd4df"/></g></g><g><g><g><path d="m52.5973206 12.1384783v10.3024111c0 1.769495-1.4344597 3.2039528-3.2039528 3.2039528h-44.3551088c-1.7694938 0-3.2039523-1.4344578-3.2039523-3.2039528v-10.3024111c0-1.7694941 1.4344585-3.2039528 3.2039523-3.2039528h44.3551102c1.7694917 0 3.2039514 1.4344587 3.2039514 3.2039528z" fill="#435e88"/><path d="m52.5933151 12.1411886v10.2957048c0 1.7759438-1.4319038 3.2079487-3.1999397 3.2079487h-44.3512187l44.3512187-16.7116012c1.7680359 0 3.1999397 1.4320049 3.1999397 3.2079477z" fill="#33527d"/></g></g><g><path d="m13.2461042 17.293045c0 1.7120781-1.3839579 3.0960369-3.096035 3.0960369-1.7118826 0-3.1038485-1.3839588-3.1038485-3.0960369 0-1.7118816 1.3919659-3.1038475 3.1038485-3.1038475 1.7120772 0 3.096035 1.3919659 3.096035 3.1038475z" fill="#e5e8ef"/><path d="m12.3381138 19.4849968c-1.2159929 1.2079849-3.1679096 1.2079849-4.3839021 0l4.3839021-4.3839025c1.2159929 1.2079858 1.2079849 3.1759176 0 4.3839025z" fill="#cdd4df"/><g><path d="m20.1269798 17.2917843c0 .9812508-.7931938 1.7744427-1.7744427 1.7744427-.9811382 0-1.7789211-.7931919-1.7789211-1.7744427 0-.9811382.7977829-1.7789211 1.7789211-1.7789211.9812489 0 1.7744427.7977829 1.7744427 1.7789211z" fill="#4cc66e"/><path d="m19.6065807 18.5480671c-.696928.692337-1.8156376.692337-2.5125637 0l2.5125637-2.5125656c.6969262.6923389.6923371 1.8202266 0 2.5125656z" fill="#14a142"/></g><g><path d="m25.6175976 17.2917843c0 .9812508-.7931938 1.7744427-1.7744427 1.7744427-.9811382 0-1.7789211-.7931919-1.7789211-1.7744427 0-.9811382.7977829-1.7789211 1.7789211-1.7789211.9812489 0 1.7744427.7977829 1.7744427 1.7789211z" fill="#c175ff"/><path d="m25.0971985 18.5480671c-.696928.692337-1.8156376.692337-2.5125637 0l2.5125637-2.5125656c.6969261.6923389.692337 1.8202266 0 2.5125656z" fill="#b244f1"/></g><path d="m47.4927559 17.2896843c0 .3709831-.1507645.7062263-.3927765.950222-.2439995.2420616-.5792389.3927784-.9502258.3927784h-14.9340782c-.7419682 0-1.3430004-.6010323-1.3430004-1.3430004 0-.3708878.1507664-.7062263.3927784-.9502239.2439957-.2419624.5792389-.3927784.950222-.3927784h14.9340782c.7419204 0 1.3430023.6011295 1.3430023 1.3430023z" fill="#fff"/><path d="m37.6564217 18.6316624h-6.4459477c-.7408504 0-1.3336353-.6031208-1.3336353-1.3442307 0-.370554.1483269-.7090664.3917446-.952486.2434196-.2325649.5715942-.3917437.9418907-.3917437h6.4459476c-.3705559 0-.7093277.1591787-.9527473.3917437-.2434158.2434196-.3914833.5819321-.3914833.952486 0 .7411099.6031189 1.3442307 1.3442307 1.3442307z" fill="#cdd4df"/></g></g></g></g></g></g><g><g><path d="m66.142128 43.009285c0 8.9142342-7.1325493 16.0409813-15.9249115 16.0409813-8.914238 0-16.0467873-7.1267471-16.0467873-16.0409813 0-8.7981682 7.1325493-15.9249134 16.0467873-15.9249134 8.7923622 0 15.9249115 7.1267452 15.9249115 15.9249134z" fill="#5cbeff"/><path d="m61.4967346 54.3267899c-6.3017654 6.3107605-16.3791466 6.3019829-22.6001472.0812035l22.6001472-22.6001434c6.2207794 6.2207793 6.2297745 16.2981604 0 22.5189399z" fill="#079cff"/><path d="m61.6472931 43.0256004c0 6.4077682-5.1270485 11.5306473-11.4472122 11.5306473-6.4077682 0-11.5348167-5.122879-11.5348167-11.5306473 0-6.3243332 5.1270485-11.4472103 11.5348167-11.4472103 6.3201637 0 11.4472122 5.1228771 11.4472122 11.4472103z" fill="#e5e8ef"/><path d="m61.6494865 43.0269356c0 6.4095268-5.1330643 11.5338135-11.4528236 11.5338135-3.7576218 0-7.0747566-1.76194-9.1784172-4.522049 1.9416885 1.4836464 4.3690758 2.3641777 7.0299835 2.3641777 6.3197594 0 11.4438248-5.123848 11.4438248-11.5333748 0-2.6161346-.8719711-5.0255203-2.3463974-6.9489937 2.7418938 2.0946618 4.5038299 5.3937989 4.5038299 9.1064263z" fill="#cdd4df"/><path d="m50.151886 33.3084221.0087814.0000038c.5847206.000103 1.051796.4766693 1.051796 1.0609093v7.5386772c0 .58424-.4670753 1.0606346-1.051796 1.0605278h-.0087776c-.5847206-.0001068-1.051796-.4766693-1.051796-1.0609093v-7.5386772c0-.58424.4670716-1.0606346 1.0517922-1.0605316z" fill="#435e88"/><path d="m58.5390968 43.0629311v.0087776c0 .5846786-.4764786 1.0517197-1.0607185 1.0517197h-5.0522957c-.5842438 0-1.0607224-.467041-1.0607224-1.0517197v-.0087776c0-.5846825.4764786-1.0517235 1.0607224-1.0517235h5.0522957c.58424 0 1.0607185.467041 1.0607185 1.0517235z" fill="#435e88"/><path d="m52.7419052 43.0579338c0 1.4418297-1.1536522 2.5945435-2.5757713 2.5945435-1.4418297 0-2.5954819-1.1527138-2.5954819-2.5945435 0-1.4230576 1.1536522-2.5757713 2.5954819-2.5757713 1.4221191 0 2.5757713 1.1527138 2.5757713 2.5757713z" fill="#33527d"/><path d="m51.2155342 43.0634727c0 .5906754-.4726181 1.0629082-1.0552177 1.0629082-.5906754 0-1.0632935-.4722328-1.0632935-1.0629082 0-.5829849.4726181-1.0552177 1.0632935-1.0552177.5825996 0 1.0552177.4722328 1.0552177 1.0552177z" fill="#ffd80c"/><g><path d="m44.5805359 49.2722969c-.1610947 0-.3221893-.0614548-.4450951-.1843605-.2458115-.2455902-.2458115-.6441574 0-.8897476l5.5759621-5.5757446c.2458115-.2458115.6443787-.2458115.8901901 0 .2458115.2455902.2458115.6441574 0 .8897476l-5.5759659 5.5757446c-.1229057.1229057-.2840004.1843605-.4450912.1843605z" fill="#ffd80c"/></g></g></g></g></svg>